# xmcd
#
# Track frame offsets:
#	150
#	21935
#	39897
#	58460
#	79592
#	99425
#	117307
#	138372
#	157365
#	184222
#
# Disc length: 2780 seconds
#
# Revision: 1
# Processed by: cddbd v1.4b42PL1 Copyright (c) Steve Scherf et al.
# Submitted via: audiograbber 1.80
#
DISCID=870ada0a
DTITLE=Nancy Wilson - Nancy Wilson - 1989 - A Lady with a Song
DYEAR=1900
DGENRE=
TTITLE0=Do you still dream about me
TTITLE1=Now I know
TTITLE2=Time out for Love
TTITLE3=Don´t ask my Neighbors
TTITLE4=A Lady with a Song
TTITLE5=That´s what I remember
TTITLE6=This Love is what I need
TTITLE7=Other side of the storm
TTITLE8=Melody is you
TTITLE9=Heavens hands
EXTD=
EXTT0=
EXTT1=
EXTT2=
EXTT3=
EXTT4=
EXTT5=
EXTT6=
EXTT7=
EXTT8=
EXTT9=
PLAYORDER=
